# xmcd
#
# Track frame offsets:
#	182
#	11037
#	22587
#	35072
#	47677
#	59642
#	71335
#	83585
#	94962
#	108187
#	116577
#	130837
#	143427
#	153582
#	167372
#	181615
#	191772
#	203862
#	213885
#	227125
#	236097
#	246907
#	258312
#	272532
#	284255
#	296782
#	311992
#	325115
#
# Disc length: 4519
#
# Revision: 3
# Processed by: cddbd v1.5.1PL0 Copyright (c) Steve Scherf et al.
# Submitted via: EasyCDDAExtractor 5.0.6
# Normalized: r2:DSETVAR1
#
DISCID=8b11a51c
DTITLE=Various Artist - White Lightning
DYEAR=1990
DGENRE=Blues
TTITLE0=Chuck Berry - Roll Over Beethoven
TTITLE1=John Lee Hooker - Boom Boom
TTITLE2=Bo Diddley - Road Runner
TTITLE3=Howlin' Wolf - Spoonful
TTITLE4=Muddy Waters - Walkin' Thru The Park
TTITLE5=Little Walter - My Babe
TTITLE6=Billy Boy Arnold - I Wish You Would
TTITLE7=Wilbert Harrison - Kansas City
TTITLE8=Elmore James - Dust My Broom
TTITLE9=Chuck Berry - I'm Talking About You
TTITLE10=Lowell Fulson - Reconsider Baby
TTITLE11=Ernie K-Doe - A Certain Girl
TTITLE12=John Lee Hooker - Dimples
TTITLE13=Howlin' Wolf - Smokestack Lightning
TTITLE14=Bo Diddley - You Can't Judge A Book By The Cover
TTITLE15=Billy Boy Arnold - I Ain't Got You
TTITLE16=Rosco Gordon - No More Doggin'
TTITLE17=Buddy Guy - First Time I Met The Blues
TTITLE18=Chuck Berry - Too Much Monkey Business
TTITLE19=Chris Kenner - I Like It Like That
TTITLE20=Jimmy Reed - Baby What You Want Me To Do
TTITLE21=Elmore James - Rollin' and Tumblin'
TTITLE22=Sonny Boy Williamson - Help Me
TTITLE23=Etta James - I'd Rather Go Blind
TTITLE24=Bo Diddley - Pretty Thing
TTITLE25=Howlin' Wolf - Goin' Down Slow
TTITLE26=Elmore James - Standing At The Crossroads
TTITLE27=Otis Rush - I Can't Quit You Baby
EXTD=Input by Bill (whall@netcomuk.co.uk)
EXTT0=
EXTT1=
EXTT2=
EXTT3=
EXTT4=
EXTT5=
EXTT6=
EXTT7=
EXTT8=
EXTT9=
EXTT10=
EXTT11=
EXTT12=
EXTT13=
EXTT14=
EXTT15=
EXTT16=
EXTT17=
EXTT18=
EXTT19=
EXTT20=
EXTT21=
EXTT22=
EXTT23=
EXTT24=
EXTT25=
EXTT26=
EXTT27=
PLAYORDER=
